<mxfile host="app.diagrams.net" agent="Mozilla/5.0 (Windows NT 10.0; Win64; x64) AppleWebKit/537.36 (KHTML, like Gecko) Chrome/136.0.0.0 Safari/537.36 Edg/136.0.0.0" version="27.0.6">
  <diagram name="ページ1" id="x38E6jqCPU3l6lvxFxvu">
    <mxGraphModel dx="1341" dy="878" grid="1" gridSize="10" guides="1" tooltips="1" connect="1" arrows="1" fold="1" page="1" pageScale="1" pageWidth="827" pageHeight="1169" math="0" shadow="0">
      <root>
        <mxCell id="0" />
        <mxCell id="1" parent="0" />
        <mxCell id="7tiRyADVyy9cA7FerkK4-9" value="" style="edgeStyle=orthogonalEdgeStyle;rounded=0;orthogonalLoop=1;jettySize=auto;html=1;" edge="1" parent="1" source="ywfHkIdbfyH4UHMAIcFu-1" target="ywfHkIdbfyH4UHMAIcFu-2">
          <mxGeometry relative="1" as="geometry" />
        </mxCell>
        <mxCell id="ywfHkIdbfyH4UHMAIcFu-1" value="" style="image;aspect=fixed;html=1;points=[];align=center;fontSize=12;image=img/lib/azure2/preview/Static_Apps.svg;" parent="1" vertex="1">
          <mxGeometry x="401" y="425" width="68" height="54" as="geometry" />
        </mxCell>
        <mxCell id="ywfHkIdbfyH4UHMAIcFu-2" value="" style="image;aspect=fixed;html=1;points=[];align=center;fontSize=12;image=img/lib/azure2/app_services/App_Services.svg;" parent="1" vertex="1">
          <mxGeometry x="613" y="420" width="64" height="64" as="geometry" />
        </mxCell>
        <mxCell id="7tiRyADVyy9cA7FerkK4-6" value="" style="group" vertex="1" connectable="0" parent="1">
          <mxGeometry x="90" y="100" width="105" height="230" as="geometry" />
        </mxCell>
        <mxCell id="7tiRyADVyy9cA7FerkK4-4" value="" style="group" vertex="1" connectable="0" parent="7tiRyADVyy9cA7FerkK4-6">
          <mxGeometry width="80" height="110" as="geometry" />
        </mxCell>
        <mxCell id="w7e60LT3kDtD1Cjftb_R-1" value="" style="image;aspect=fixed;html=1;points=[];align=center;fontSize=12;image=img/lib/azure2/other/Entra_Identity.svg;" parent="7tiRyADVyy9cA7FerkK4-4" vertex="1">
          <mxGeometry width="78.76" height="70" as="geometry" />
        </mxCell>
        <mxCell id="7tiRyADVyy9cA7FerkK4-2" value="テナントA" style="text;html=1;align=center;verticalAlign=middle;resizable=0;points=[];autosize=1;strokeColor=none;fillColor=none;" vertex="1" parent="7tiRyADVyy9cA7FerkK4-4">
          <mxGeometry y="80" width="80" height="30" as="geometry" />
        </mxCell>
        <mxCell id="7tiRyADVyy9cA7FerkK4-5" value="" style="group" vertex="1" connectable="0" parent="7tiRyADVyy9cA7FerkK4-6">
          <mxGeometry y="140" width="80" height="90" as="geometry" />
        </mxCell>
        <mxCell id="ywfHkIdbfyH4UHMAIcFu-4" value="" style="sketch=0;outlineConnect=0;fontColor=#232F3E;gradientColor=none;fillColor=#232F3D;strokeColor=none;dashed=0;verticalLabelPosition=bottom;verticalAlign=top;align=center;html=1;fontSize=12;fontStyle=0;aspect=fixed;pointerEvents=1;shape=mxgraph.aws4.user;" parent="7tiRyADVyy9cA7FerkK4-5" vertex="1">
          <mxGeometry x="14.379999999999995" width="50" height="50" as="geometry" />
        </mxCell>
        <mxCell id="7tiRyADVyy9cA7FerkK4-3" value="ユーザーA" style="text;html=1;align=center;verticalAlign=middle;resizable=0;points=[];autosize=1;strokeColor=none;fillColor=none;" vertex="1" parent="7tiRyADVyy9cA7FerkK4-5">
          <mxGeometry y="60" width="80" height="30" as="geometry" />
        </mxCell>
        <mxCell id="7tiRyADVyy9cA7FerkK4-39" value="" style="endArrow=classic;html=1;rounded=0;entryX=0.325;entryY=0.533;entryDx=0;entryDy=0;entryPerimeter=0;" edge="1" parent="7tiRyADVyy9cA7FerkK4-5" target="7tiRyADVyy9cA7FerkK4-31">
          <mxGeometry width="50" height="50" relative="1" as="geometry">
            <mxPoint x="60" y="20" as="sourcePoint" />
            <mxPoint x="110" y="-30" as="targetPoint" />
          </mxGeometry>
        </mxCell>
        <mxCell id="7tiRyADVyy9cA7FerkK4-33" value="" style="edgeStyle=orthogonalEdgeStyle;rounded=0;orthogonalLoop=1;jettySize=auto;html=1;" edge="1" parent="7tiRyADVyy9cA7FerkK4-6" source="ywfHkIdbfyH4UHMAIcFu-4" target="7tiRyADVyy9cA7FerkK4-2">
          <mxGeometry relative="1" as="geometry" />
        </mxCell>
        <mxCell id="7tiRyADVyy9cA7FerkK4-37" value="1. 認証" style="text;html=1;align=center;verticalAlign=middle;resizable=0;points=[];autosize=1;strokeColor=none;fillColor=none;" vertex="1" parent="7tiRyADVyy9cA7FerkK4-6">
          <mxGeometry x="45" y="110" width="60" height="30" as="geometry" />
        </mxCell>
        <mxCell id="7tiRyADVyy9cA7FerkK4-10" value="フロントエンド" style="text;html=1;align=center;verticalAlign=middle;resizable=0;points=[];autosize=1;strokeColor=none;fillColor=none;" vertex="1" parent="1">
          <mxGeometry x="380" y="490" width="110" height="30" as="geometry" />
        </mxCell>
        <mxCell id="7tiRyADVyy9cA7FerkK4-11" value="バックエンドAPI" style="text;html=1;align=center;verticalAlign=middle;resizable=0;points=[];autosize=1;strokeColor=none;fillColor=none;" vertex="1" parent="1">
          <mxGeometry x="590" y="490" width="110" height="30" as="geometry" />
        </mxCell>
        <mxCell id="7tiRyADVyy9cA7FerkK4-12" value="" style="group" vertex="1" connectable="0" parent="1">
          <mxGeometry x="90" y="355" width="105" height="230" as="geometry" />
        </mxCell>
        <mxCell id="7tiRyADVyy9cA7FerkK4-13" value="" style="group" vertex="1" connectable="0" parent="7tiRyADVyy9cA7FerkK4-12">
          <mxGeometry width="80" height="110" as="geometry" />
        </mxCell>
        <mxCell id="7tiRyADVyy9cA7FerkK4-14" value="" style="image;aspect=fixed;html=1;points=[];align=center;fontSize=12;image=img/lib/azure2/other/Entra_Identity.svg;" vertex="1" parent="7tiRyADVyy9cA7FerkK4-13">
          <mxGeometry width="78.76" height="70" as="geometry" />
        </mxCell>
        <mxCell id="7tiRyADVyy9cA7FerkK4-15" value="テナントB" style="text;html=1;align=center;verticalAlign=middle;resizable=0;points=[];autosize=1;strokeColor=none;fillColor=none;" vertex="1" parent="7tiRyADVyy9cA7FerkK4-13">
          <mxGeometry y="80" width="80" height="30" as="geometry" />
        </mxCell>
        <mxCell id="7tiRyADVyy9cA7FerkK4-16" value="" style="group" vertex="1" connectable="0" parent="7tiRyADVyy9cA7FerkK4-12">
          <mxGeometry y="140" width="80" height="90" as="geometry" />
        </mxCell>
        <mxCell id="7tiRyADVyy9cA7FerkK4-17" value="" style="sketch=0;outlineConnect=0;fontColor=#232F3E;gradientColor=none;fillColor=#232F3D;strokeColor=none;dashed=0;verticalLabelPosition=bottom;verticalAlign=top;align=center;html=1;fontSize=12;fontStyle=0;aspect=fixed;pointerEvents=1;shape=mxgraph.aws4.user;" vertex="1" parent="7tiRyADVyy9cA7FerkK4-16">
          <mxGeometry x="14.379999999999995" width="50" height="50" as="geometry" />
        </mxCell>
        <mxCell id="7tiRyADVyy9cA7FerkK4-18" value="ユーザーB" style="text;html=1;align=center;verticalAlign=middle;resizable=0;points=[];autosize=1;strokeColor=none;fillColor=none;" vertex="1" parent="7tiRyADVyy9cA7FerkK4-16">
          <mxGeometry y="60" width="80" height="30" as="geometry" />
        </mxCell>
        <mxCell id="7tiRyADVyy9cA7FerkK4-40" value="" style="endArrow=classic;html=1;rounded=0;entryX=0.658;entryY=0.567;entryDx=0;entryDy=0;entryPerimeter=0;" edge="1" parent="7tiRyADVyy9cA7FerkK4-16" target="7tiRyADVyy9cA7FerkK4-31">
          <mxGeometry width="50" height="50" relative="1" as="geometry">
            <mxPoint x="64.38" y="25" as="sourcePoint" />
            <mxPoint x="114.38" y="-25" as="targetPoint" />
          </mxGeometry>
        </mxCell>
        <mxCell id="7tiRyADVyy9cA7FerkK4-34" value="" style="edgeStyle=orthogonalEdgeStyle;rounded=0;orthogonalLoop=1;jettySize=auto;html=1;" edge="1" parent="7tiRyADVyy9cA7FerkK4-12" source="7tiRyADVyy9cA7FerkK4-17" target="7tiRyADVyy9cA7FerkK4-15">
          <mxGeometry relative="1" as="geometry" />
        </mxCell>
        <mxCell id="7tiRyADVyy9cA7FerkK4-36" value="1. 認証" style="text;html=1;align=center;verticalAlign=middle;resizable=0;points=[];autosize=1;strokeColor=none;fillColor=none;" vertex="1" parent="7tiRyADVyy9cA7FerkK4-12">
          <mxGeometry x="45" y="110" width="60" height="30" as="geometry" />
        </mxCell>
        <mxCell id="7tiRyADVyy9cA7FerkK4-19" value="" style="group" vertex="1" connectable="0" parent="1">
          <mxGeometry x="90" y="610" width="80" height="230" as="geometry" />
        </mxCell>
        <mxCell id="7tiRyADVyy9cA7FerkK4-20" value="" style="group" vertex="1" connectable="0" parent="7tiRyADVyy9cA7FerkK4-19">
          <mxGeometry width="80" height="110" as="geometry" />
        </mxCell>
        <mxCell id="7tiRyADVyy9cA7FerkK4-21" value="" style="image;aspect=fixed;html=1;points=[];align=center;fontSize=12;image=img/lib/azure2/other/Entra_Identity.svg;" vertex="1" parent="7tiRyADVyy9cA7FerkK4-20">
          <mxGeometry width="78.76" height="70" as="geometry" />
        </mxCell>
        <mxCell id="7tiRyADVyy9cA7FerkK4-22" value="テナントC" style="text;html=1;align=center;verticalAlign=middle;resizable=0;points=[];autosize=1;strokeColor=none;fillColor=none;" vertex="1" parent="7tiRyADVyy9cA7FerkK4-20">
          <mxGeometry y="80" width="80" height="30" as="geometry" />
        </mxCell>
        <mxCell id="7tiRyADVyy9cA7FerkK4-23" value="" style="group" vertex="1" connectable="0" parent="7tiRyADVyy9cA7FerkK4-19">
          <mxGeometry y="140" width="80" height="90" as="geometry" />
        </mxCell>
        <mxCell id="7tiRyADVyy9cA7FerkK4-24" value="" style="sketch=0;outlineConnect=0;fontColor=#232F3E;gradientColor=none;fillColor=#232F3D;strokeColor=none;dashed=0;verticalLabelPosition=bottom;verticalAlign=top;align=center;html=1;fontSize=12;fontStyle=0;aspect=fixed;pointerEvents=1;shape=mxgraph.aws4.user;" vertex="1" parent="7tiRyADVyy9cA7FerkK4-23">
          <mxGeometry x="14.379999999999995" width="50" height="50" as="geometry" />
        </mxCell>
        <mxCell id="7tiRyADVyy9cA7FerkK4-25" value="ユーザーC" style="text;html=1;align=center;verticalAlign=middle;resizable=0;points=[];autosize=1;strokeColor=none;fillColor=none;" vertex="1" parent="7tiRyADVyy9cA7FerkK4-23">
          <mxGeometry y="60" width="80" height="30" as="geometry" />
        </mxCell>
        <mxCell id="7tiRyADVyy9cA7FerkK4-41" value="" style="endArrow=classic;html=1;rounded=0;entryX=-0.208;entryY=0.5;entryDx=0;entryDy=0;entryPerimeter=0;" edge="1" parent="7tiRyADVyy9cA7FerkK4-23" target="7tiRyADVyy9cA7FerkK4-31">
          <mxGeometry width="50" height="50" relative="1" as="geometry">
            <mxPoint x="64.38" y="20" as="sourcePoint" />
            <mxPoint x="114.38" y="-30" as="targetPoint" />
          </mxGeometry>
        </mxCell>
        <mxCell id="7tiRyADVyy9cA7FerkK4-35" value="" style="edgeStyle=orthogonalEdgeStyle;rounded=0;orthogonalLoop=1;jettySize=auto;html=1;" edge="1" parent="7tiRyADVyy9cA7FerkK4-19" source="7tiRyADVyy9cA7FerkK4-24" target="7tiRyADVyy9cA7FerkK4-22">
          <mxGeometry relative="1" as="geometry" />
        </mxCell>
        <mxCell id="7tiRyADVyy9cA7FerkK4-26" value="リクエストに含まれる認証結果を検証し、許可していないテナントからのアクセスがあればStatus 403 でレスポンス" style="shape=callout;whiteSpace=wrap;html=1;perimeter=calloutPerimeter;position2=0.39;base=25;" vertex="1" parent="1">
          <mxGeometry x="580" y="280" width="220" height="130" as="geometry" />
        </mxCell>
        <mxCell id="7tiRyADVyy9cA7FerkK4-29" value="・認証結果をリクエストヘッダーもしくはリクエストボディに含めて送信&lt;div&gt;・バックエンド側の検証結果に応じて、ページを非表示&lt;/div&gt;" style="shape=callout;whiteSpace=wrap;html=1;perimeter=calloutPerimeter;position2=0.57;" vertex="1" parent="1">
          <mxGeometry x="320" y="280" width="220" height="130" as="geometry" />
        </mxCell>
        <mxCell id="7tiRyADVyy9cA7FerkK4-31" value="" style="shape=waypoint;sketch=0;size=6;pointerEvents=1;points=[];fillColor=default;resizable=0;rotatable=0;perimeter=centerPerimeter;snapToPoint=1;verticalAlign=top;labelBackgroundColor=default;" vertex="1" parent="1">
          <mxGeometry x="390" y="440" width="20" height="20" as="geometry" />
        </mxCell>
        <mxCell id="7tiRyADVyy9cA7FerkK4-38" value="1. 認証" style="text;html=1;align=center;verticalAlign=middle;resizable=0;points=[];autosize=1;strokeColor=none;fillColor=none;" vertex="1" parent="1">
          <mxGeometry x="130" y="718" width="60" height="30" as="geometry" />
        </mxCell>
        <mxCell id="7tiRyADVyy9cA7FerkK4-52" value="2. ページ表示" style="text;html=1;align=center;verticalAlign=middle;resizable=0;points=[];autosize=1;strokeColor=none;fillColor=none;" vertex="1" parent="1">
          <mxGeometry x="210" y="449" width="100" height="30" as="geometry" />
        </mxCell>
        <mxCell id="7tiRyADVyy9cA7FerkK4-53" value="2. ページ表示" style="text;html=1;align=center;verticalAlign=middle;resizable=0;points=[];autosize=1;strokeColor=none;fillColor=none;" vertex="1" parent="1">
          <mxGeometry x="200" y="280" width="100" height="30" as="geometry" />
        </mxCell>
        <mxCell id="7tiRyADVyy9cA7FerkK4-54" value="2. ページ表示" style="text;html=1;align=center;verticalAlign=middle;resizable=0;points=[];autosize=1;strokeColor=none;fillColor=none;" vertex="1" parent="1">
          <mxGeometry x="180" y="590" width="100" height="30" as="geometry" />
        </mxCell>
        <mxCell id="7tiRyADVyy9cA7FerkK4-58" value="テナントのアクセス許可リスト" style="swimlane;whiteSpace=wrap;html=1;" vertex="1" parent="1">
          <mxGeometry x="780" y="404" width="200" height="80" as="geometry">
            <mxRectangle x="480" y="570" width="210" height="30" as="alternateBounds" />
          </mxGeometry>
        </mxCell>
        <mxCell id="7tiRyADVyy9cA7FerkK4-60" value="・テナントA&lt;div&gt;・テナントB&lt;/div&gt;" style="text;html=1;align=center;verticalAlign=middle;resizable=0;points=[];autosize=1;strokeColor=none;fillColor=none;" vertex="1" parent="7tiRyADVyy9cA7FerkK4-58">
          <mxGeometry y="30" width="90" height="40" as="geometry" />
        </mxCell>
        <mxCell id="7tiRyADVyy9cA7FerkK4-64" value="" style="endArrow=classic;html=1;rounded=0;" edge="1" parent="1">
          <mxGeometry width="50" height="50" relative="1" as="geometry">
            <mxPoint x="677" y="454" as="sourcePoint" />
            <mxPoint x="780" y="454" as="targetPoint" />
          </mxGeometry>
        </mxCell>
      </root>
    </mxGraphModel>
  </diagram>
</mxfile>
